# xmcd
#
# Track frame offsets: 
#        150
#        14227
#        28340
#        44700
#        58655
#        77600
#        94570
#        105320
#
# Disc length: 1562 seconds
#
# Revision: 0
# Processed by: cddbd v1.4PL0 Copyright (c) Steve Scherf et al.
# Submitted via: ExactAudioCopy v0.90b4
#
DISCID=64061808
DTITLE=Earl Thomas Conley - Somewhere Between Right And Wrong
DYEAR=1900
DGENRE=Country
TTITLE0=Heavenly Bodies
TTITLE1=Don't Get Along With The Blues
TTITLE2=This Ain't No Way To Be
TTITLE3=We've Got All Night
TTITLE4=Somewhere Between Right And Wrong
TTITLE5=The Highway Home
TTITLE6=Bottled Up Blues
TTITLE7=I Have Loved You, Girl (But Not Like This Before)
EXTD=
EXTT0=
EXTT1=
EXTT2=
EXTT3=
EXTT4=
EXTT5=
EXTT6=
EXTT7=
PLAYORDER=
